<svg width="213" height="114" viewBox="0 0 213 114" fill="none" xmlns="http://www.w3.org/2000/svg">
<path d="M133 67.6757C138.016 67.6757 140.721 67.0096 143.875 64.8423C146.691 62.9071 149.902 61.5877 153.206 62.4562C157.676 63.6306 163.764 65.8224 168.378 68.5754C168.438 68.611 168.514 68.5761 168.527 68.5077L175.404 32.5051C175.424 32.3972 175.579 32.3967 175.6 32.5045L184.923 79.6113C184.943 79.7132 185.086 79.7206 185.117 79.6214L190.986 60.5872C192.292 56.35 198.058 55.7838 200.164 59.6861L202.151 63.3683C203.906 66.621 207.304 68.6486 211 68.6486V68.6486" stroke="#B7312C" stroke-width="3" stroke-linecap="round"/>
<path d="M77 67.3513L72.5649 67.6833C67.2591 68.0804 62.1399 65.6371 59.1118 61.2622L57.8522 59.4424C55.6788 56.3025 50.93 56.6595 49.2505 60.0891L39.6304 79.7338C39.5883 79.8198 39.461 79.8031 39.4425 79.7092L30.0998 32.5045C30.0785 32.3967 29.9241 32.3972 29.9035 32.5051L23.0269 68.5077C23.0139 68.5761 22.9358 68.6099 22.8762 68.574C19.0167 66.2438 15.9218 64.1178 13.4218 62.6914C10.4539 60.998 7.08171 62.1111 4.40391 64.2337C3.38385 65.0422 2.46177 65.7492 2 66.0541" stroke="#B7312C" stroke-width="3" stroke-linecap="round"/>
<path d="M49 95C47.8954 95 47 94.1046 47 93L47 21C47 19.8954 47.8954 19 49 19L157 19C158.105 19 159 19.8954 159 21L159 93C159 94.1046 158.105 95 157 95L49 95Z" fill="#D9D9D9" stroke="#7D7D7D" stroke-width="2"/>
<rect x="102" y="51" width="4" height="2" rx="0.4" transform="rotate(-90 102 51)" fill="#333333"/>
<circle cx="61" cy="89" r="2" fill="#D9D9D9" stroke="#888888" stroke-width="2"/>
<circle cx="69" cy="89" r="2" fill="#D9D9D9" stroke="#888888" stroke-width="2"/>
<circle cx="77" cy="89" r="2" fill="#D9D9D9" stroke="#888888" stroke-width="2"/>
<circle cx="85" cy="89" r="2" fill="#D9D9D9" stroke="#888888" stroke-width="2"/>
<circle cx="93" cy="89" r="2" fill="#D9D9D9" stroke="#888888" stroke-width="2"/>
<circle cx="101" cy="89" r="2" fill="#D9D9D9" stroke="#888888" stroke-width="2"/>
<circle cx="109" cy="89" r="2" fill="#D9D9D9" stroke="#888888" stroke-width="2"/>
<circle cx="117" cy="89" r="2" fill="#D9D9D9" stroke="#888888" stroke-width="2"/>
<circle cx="141" cy="89" r="2" fill="#D9D9D9" stroke="#888888" stroke-width="2"/>
<circle cx="53" cy="25" r="2" fill="#D9D9D9" stroke="#888888" stroke-width="2"/>
<circle cx="61" cy="25" r="2" fill="#D9D9D9" stroke="#888888" stroke-width="2"/>
<circle cx="69" cy="25" r="2" fill="#D9D9D9" stroke="#888888" stroke-width="2"/>
<circle cx="77" cy="25" r="2" fill="#D9D9D9" stroke="#888888" stroke-width="2"/>
<circle cx="85" cy="25" r="2" fill="#D9D9D9" stroke="#888888" stroke-width="2"/>
<circle cx="93" cy="25" r="2" fill="#D9D9D9" stroke="#888888" stroke-width="2"/>
<circle cx="101" cy="25" r="2" fill="#D9D9D9" stroke="#888888" stroke-width="2"/>
<circle cx="109" cy="25" r="2" fill="#D9D9D9" stroke="#888888" stroke-width="2"/>
<circle cx="117" cy="25" r="2" fill="#D9D9D9" stroke="#888888" stroke-width="2"/>
<circle cx="125" cy="25" r="2" fill="#D9D9D9" stroke="#888888" stroke-width="2"/>
<circle cx="133" cy="25" r="2" fill="#D9D9D9" stroke="#888888" stroke-width="2"/>
<circle cx="141" cy="25" r="2" fill="#D9D9D9" stroke="#888888" stroke-width="2"/>
<circle cx="149" cy="25" r="2" fill="#D9D9D9" stroke="#888888" stroke-width="2"/>
<rect x="104.5" y="77.1777" width="6" height="3" rx="0.4" transform="rotate(135 104.5 77.1777)" fill="white"/>
<rect x="100.257" y="72.9351" width="6" height="3" rx="0.4" transform="rotate(135 100.257 72.9351)" fill="white"/>
<rect x="96.0148" y="68.6924" width="6" height="3" rx="0.4" transform="rotate(135 96.0148 68.6924)" fill="white"/>
<rect x="92.4792" y="65.1567" width="6" height="3" rx="0.4" transform="rotate(135 92.4792 65.1567)" fill="white"/>
<rect x="88.2366" y="60.9146" width="6" height="3" rx="0.4" transform="rotate(135 88.2366 60.9146)" fill="white"/>
<rect x="126.42" y="55.2573" width="6" height="3" rx="0.4" transform="rotate(135 126.42 55.2573)" fill="white"/>
<rect x="122.178" y="51.0146" width="6" height="3" rx="0.4" transform="rotate(135 122.178 51.0146)" fill="white"/>
<rect x="117.935" y="46.772" width="6" height="3" rx="0.4" transform="rotate(135 117.935 46.772)" fill="white"/>
<rect x="114.4" y="43.2363" width="6" height="3" rx="0.4" transform="rotate(135 114.4 43.2363)" fill="white"/>
<rect x="110.157" y="38.9941" width="6" height="3" rx="0.4" transform="rotate(135 110.157 38.9941)" fill="white"/>
<rect x="108.743" y="81.4204" width="6" height="3" rx="0.4" transform="rotate(-135 108.743 81.4204)" fill="white"/>
<rect x="112.985" y="77.1777" width="6" height="3" rx="0.4" transform="rotate(-135 112.985 77.1777)" fill="white"/>
<rect x="117.228" y="72.9351" width="6" height="3" rx="0.4" transform="rotate(-135 117.228 72.9351)" fill="white"/>
<rect x="120.763" y="69.3994" width="6" height="3" rx="0.4" transform="rotate(-135 120.763 69.3994)" fill="white"/>
<rect x="125.006" y="65.1567" width="6" height="3" rx="0.4" transform="rotate(-135 125.006 65.1567)" fill="white"/>
<rect x="86.8224" y="59.5" width="6" height="3" rx="0.4" transform="rotate(-135 86.8224 59.5)" fill="white"/>
<rect x="91.065" y="55.2573" width="6" height="3" rx="0.4" transform="rotate(-135 91.065 55.2573)" fill="white"/>
<rect x="95.3076" y="51.0146" width="6" height="3" rx="0.4" transform="rotate(-135 95.3076 51.0146)" fill="white"/>
<rect x="98.8432" y="47.479" width="6" height="3" rx="0.4" transform="rotate(-135 98.8432 47.479)" fill="white"/>
<rect x="103.086" y="43.2363" width="6" height="3" rx="0.4" transform="rotate(-135 103.086 43.2363)" fill="white"/>
<rect x="104.5" y="81.4204" width="31" height="31" rx="0.4" transform="rotate(-135 104.5 81.4204)" fill="#333333"/>
<rect x="66" y="49" width="6" height="3" rx="0.4" transform="rotate(90 66 49)" fill="white"/>
<rect x="66" y="67" width="6" height="3" rx="0.4" transform="rotate(90 66 67)" fill="white"/>
<rect x="75" y="49" width="6" height="3" rx="0.4" transform="rotate(90 75 49)" fill="white"/>
<rect x="75" y="67" width="6" height="3" rx="0.4" transform="rotate(90 75 67)" fill="white"/>
<mask id="path-52-inside-1_33_1043" fill="white">
<rect x="63" y="70" width="18" height="12" rx="0.4" transform="rotate(-90 63 70)"/>
</mask>
<rect x="63" y="70" width="18" height="12" rx="0.4" transform="rotate(-90 63 70)" fill="white" stroke="#FFA100" stroke-width="4" mask="url(#path-52-inside-1_33_1043)"/>
<rect x="52" y="33" width="6" height="3" rx="0.4" fill="#333333"/>
<rect x="120" y="34" width="6" height="3" rx="0.4" fill="#333333"/>
<rect x="89" y="33" width="3" height="3" rx="0.4" fill="#333333"/>
<rect x="81" y="33" width="3" height="3" rx="0.4" fill="#333333"/>
<rect x="73" y="33" width="3" height="3" rx="0.4" fill="#333333"/>
<rect x="65" y="33" width="3" height="3" rx="0.4" fill="#333333"/>
<rect x="55" y="42" width="3" height="3" rx="0.4" fill="#333333"/>
<rect x="55" y="77" width="3" height="3" rx="0.4" fill="#333333"/>
<rect x="114" y="38" width="3" height="3" rx="0.4" fill="#333333"/>
<rect x="137" y="34" width="3" height="3" rx="0.4" fill="#333333"/>
<rect x="146" y="34" width="6" height="3" rx="0.4" fill="#333333"/>
<rect x="66" y="77" width="6" height="3" rx="0.4" fill="#333333"/>
<rect x="66" y="42" width="6" height="3" rx="0.4" fill="#333333"/>
</svg>
